<mxfile host="Electron" agent="Mozilla/5.0 (Windows NT 10.0; Win64; x64) AppleWebKit/537.36 (KHTML, like Gecko) draw.io/26.1.1 Chrome/132.0.6834.210 Electron/34.3.3 Safari/537.36" version="26.1.1">
  <diagram name="Страница — 1" id="XD8mL1H3JGyR3cqBagfl">
    <mxGraphModel dx="1195" dy="1866" grid="1" gridSize="10" guides="1" tooltips="1" connect="1" arrows="1" fold="1" page="1" pageScale="1" pageWidth="827" pageHeight="1169" math="0" shadow="0">
      <root>
        <mxCell id="0" />
        <mxCell id="1" parent="0" />
        <mxCell id="NHabuL97ViZi0DOSIS7M-5" value="HR-менеджер" style="shape=table;startSize=30;container=1;collapsible=1;childLayout=tableLayout;fixedRows=1;rowLines=0;fontStyle=1;align=center;resizeLast=1;verticalAlign=middle;horizontal=1;spacingTop=0;html=1;fontSize=14;" vertex="1" parent="1">
          <mxGeometry x="270" y="290" width="180" height="120" as="geometry">
            <mxRectangle x="280" y="290" width="70" height="30" as="alternateBounds" />
          </mxGeometry>
        </mxCell>
        <mxCell id="NHabuL97ViZi0DOSIS7M-6" value="" style="shape=tableRow;horizontal=1;startSize=0;swimlaneHead=0;swimlaneBody=0;fillColor=none;collapsible=0;dropTarget=0;points=[[0,0.5],[1,0.5]];portConstraint=eastwest;top=0;left=0;right=0;bottom=0;verticalAlign=middle;spacingTop=0;html=1;fontSize=14;" vertex="1" parent="NHabuL97ViZi0DOSIS7M-5">
          <mxGeometry y="30" width="180" height="30" as="geometry" />
        </mxCell>
        <mxCell id="NHabuL97ViZi0DOSIS7M-7" value="PK" style="shape=partialRectangle;connectable=0;fillColor=none;top=1;left=0;bottom=1;right=0;fontStyle=1;overflow=hidden;verticalAlign=middle;horizontal=1;spacingTop=0;html=1;fontSize=14;" vertex="1" parent="NHabuL97ViZi0DOSIS7M-6">
          <mxGeometry width="60" height="30" as="geometry">
            <mxRectangle width="60" height="30" as="alternateBounds" />
          </mxGeometry>
        </mxCell>
        <mxCell id="NHabuL97ViZi0DOSIS7M-8" value="id_hr_manager" style="shape=partialRectangle;connectable=0;fillColor=none;top=1;left=0;bottom=1;right=0;align=left;spacingLeft=6;fontStyle=5;overflow=hidden;verticalAlign=middle;horizontal=1;spacingTop=0;html=1;fontSize=14;" vertex="1" parent="NHabuL97ViZi0DOSIS7M-6">
          <mxGeometry x="60" width="120" height="30" as="geometry">
            <mxRectangle width="120" height="30" as="alternateBounds" />
          </mxGeometry>
        </mxCell>
        <mxCell id="NHabuL97ViZi0DOSIS7M-12" value="" style="shape=tableRow;horizontal=1;startSize=0;swimlaneHead=0;swimlaneBody=0;fillColor=none;collapsible=0;dropTarget=0;points=[[0,0.5],[1,0.5]];portConstraint=eastwest;top=0;left=0;right=0;bottom=0;verticalAlign=middle;spacingTop=0;html=1;fontSize=14;" vertex="1" parent="NHabuL97ViZi0DOSIS7M-5">
          <mxGeometry y="60" width="180" height="30" as="geometry" />
        </mxCell>
        <mxCell id="NHabuL97ViZi0DOSIS7M-13" value="" style="shape=partialRectangle;connectable=0;fillColor=none;top=0;left=0;bottom=0;right=0;editable=1;overflow=hidden;verticalAlign=middle;horizontal=1;spacingTop=0;html=1;fontSize=14;" vertex="1" parent="NHabuL97ViZi0DOSIS7M-12">
          <mxGeometry width="60" height="30" as="geometry">
            <mxRectangle width="60" height="30" as="alternateBounds" />
          </mxGeometry>
        </mxCell>
        <mxCell id="NHabuL97ViZi0DOSIS7M-14" value="&lt;div&gt;&lt;span class=&quot;text-sm px-1 rounded-sm !font-mono bg-sunset/10 text-rust dark:bg-dawn/10 dark:text-dawn&quot;&gt;full_name&lt;/span&gt;&lt;/div&gt;" style="shape=partialRectangle;connectable=0;fillColor=none;top=0;left=0;bottom=0;right=0;align=left;spacingLeft=6;overflow=hidden;verticalAlign=middle;horizontal=1;spacingTop=0;html=1;fontSize=14;" vertex="1" parent="NHabuL97ViZi0DOSIS7M-12">
          <mxGeometry x="60" width="120" height="30" as="geometry">
            <mxRectangle width="120" height="30" as="alternateBounds" />
          </mxGeometry>
        </mxCell>
        <mxCell id="NHabuL97ViZi0DOSIS7M-24" style="shape=tableRow;horizontal=1;startSize=0;swimlaneHead=0;swimlaneBody=0;fillColor=none;collapsible=0;dropTarget=0;points=[[0,0.5],[1,0.5]];portConstraint=eastwest;top=0;left=0;right=0;bottom=0;verticalAlign=middle;spacingTop=0;html=1;fontSize=14;" vertex="1" parent="NHabuL97ViZi0DOSIS7M-5">
          <mxGeometry y="90" width="180" height="30" as="geometry" />
        </mxCell>
        <mxCell id="NHabuL97ViZi0DOSIS7M-25" style="shape=partialRectangle;connectable=0;fillColor=none;top=0;left=0;bottom=0;right=0;editable=1;overflow=hidden;verticalAlign=middle;horizontal=1;spacingTop=0;html=1;fontSize=14;" vertex="1" parent="NHabuL97ViZi0DOSIS7M-24">
          <mxGeometry width="60" height="30" as="geometry">
            <mxRectangle width="60" height="30" as="alternateBounds" />
          </mxGeometry>
        </mxCell>
        <mxCell id="NHabuL97ViZi0DOSIS7M-26" value="&lt;div&gt;email&lt;/div&gt;" style="shape=partialRectangle;connectable=0;fillColor=none;top=0;left=0;bottom=0;right=0;align=left;spacingLeft=6;overflow=hidden;verticalAlign=middle;horizontal=1;spacingTop=0;html=1;fontSize=14;" vertex="1" parent="NHabuL97ViZi0DOSIS7M-24">
          <mxGeometry x="60" width="120" height="30" as="geometry">
            <mxRectangle width="120" height="30" as="alternateBounds" />
          </mxGeometry>
        </mxCell>
        <mxCell id="NHabuL97ViZi0DOSIS7M-27" value="&lt;div&gt;Candidate&lt;/div&gt;" style="shape=table;startSize=30;container=1;collapsible=1;childLayout=tableLayout;fixedRows=1;rowLines=0;fontStyle=1;align=center;resizeLast=1;verticalAlign=middle;horizontal=1;spacingTop=0;html=1;fontSize=14;" vertex="1" parent="1">
          <mxGeometry x="900" y="270" width="180" height="120" as="geometry">
            <mxRectangle x="280" y="290" width="70" height="30" as="alternateBounds" />
          </mxGeometry>
        </mxCell>
        <mxCell id="NHabuL97ViZi0DOSIS7M-28" value="" style="shape=tableRow;horizontal=1;startSize=0;swimlaneHead=0;swimlaneBody=0;fillColor=none;collapsible=0;dropTarget=0;points=[[0,0.5],[1,0.5]];portConstraint=eastwest;top=0;left=0;right=0;bottom=0;verticalAlign=middle;spacingTop=0;html=1;fontSize=14;" vertex="1" parent="NHabuL97ViZi0DOSIS7M-27">
          <mxGeometry y="30" width="180" height="30" as="geometry" />
        </mxCell>
        <mxCell id="NHabuL97ViZi0DOSIS7M-29" value="PK" style="shape=partialRectangle;connectable=0;fillColor=none;top=1;left=0;bottom=1;right=0;fontStyle=1;overflow=hidden;verticalAlign=middle;horizontal=1;spacingTop=0;html=1;fontSize=14;" vertex="1" parent="NHabuL97ViZi0DOSIS7M-28">
          <mxGeometry width="60" height="30" as="geometry">
            <mxRectangle width="60" height="30" as="alternateBounds" />
          </mxGeometry>
        </mxCell>
        <mxCell id="NHabuL97ViZi0DOSIS7M-30" value="&lt;div&gt;id_candidate&lt;/div&gt;" style="shape=partialRectangle;connectable=0;fillColor=none;top=1;left=0;bottom=1;right=0;align=left;spacingLeft=6;fontStyle=5;overflow=hidden;verticalAlign=middle;horizontal=1;spacingTop=0;html=1;fontSize=14;" vertex="1" parent="NHabuL97ViZi0DOSIS7M-28">
          <mxGeometry x="60" width="120" height="30" as="geometry">
            <mxRectangle width="120" height="30" as="alternateBounds" />
          </mxGeometry>
        </mxCell>
        <mxCell id="NHabuL97ViZi0DOSIS7M-31" value="" style="shape=tableRow;horizontal=1;startSize=0;swimlaneHead=0;swimlaneBody=0;fillColor=none;collapsible=0;dropTarget=0;points=[[0,0.5],[1,0.5]];portConstraint=eastwest;top=0;left=0;right=0;bottom=0;verticalAlign=middle;spacingTop=0;html=1;fontSize=14;" vertex="1" parent="NHabuL97ViZi0DOSIS7M-27">
          <mxGeometry y="60" width="180" height="30" as="geometry" />
        </mxCell>
        <mxCell id="NHabuL97ViZi0DOSIS7M-32" value="" style="shape=partialRectangle;connectable=0;fillColor=none;top=0;left=0;bottom=0;right=0;editable=1;overflow=hidden;verticalAlign=middle;horizontal=1;spacingTop=0;html=1;fontSize=14;" vertex="1" parent="NHabuL97ViZi0DOSIS7M-31">
          <mxGeometry width="60" height="30" as="geometry">
            <mxRectangle width="60" height="30" as="alternateBounds" />
          </mxGeometry>
        </mxCell>
        <mxCell id="NHabuL97ViZi0DOSIS7M-33" value="&lt;div&gt;full_name&lt;/div&gt;" style="shape=partialRectangle;connectable=0;fillColor=none;top=0;left=0;bottom=0;right=0;align=left;spacingLeft=6;overflow=hidden;verticalAlign=middle;horizontal=1;spacingTop=0;html=1;fontSize=14;" vertex="1" parent="NHabuL97ViZi0DOSIS7M-31">
          <mxGeometry x="60" width="120" height="30" as="geometry">
            <mxRectangle width="120" height="30" as="alternateBounds" />
          </mxGeometry>
        </mxCell>
        <mxCell id="NHabuL97ViZi0DOSIS7M-34" style="shape=tableRow;horizontal=1;startSize=0;swimlaneHead=0;swimlaneBody=0;fillColor=none;collapsible=0;dropTarget=0;points=[[0,0.5],[1,0.5]];portConstraint=eastwest;top=0;left=0;right=0;bottom=0;verticalAlign=middle;spacingTop=0;html=1;fontSize=14;" vertex="1" parent="NHabuL97ViZi0DOSIS7M-27">
          <mxGeometry y="90" width="180" height="30" as="geometry" />
        </mxCell>
        <mxCell id="NHabuL97ViZi0DOSIS7M-35" style="shape=partialRectangle;connectable=0;fillColor=none;top=0;left=0;bottom=0;right=0;editable=1;overflow=hidden;verticalAlign=middle;horizontal=1;spacingTop=0;html=1;fontSize=14;" vertex="1" parent="NHabuL97ViZi0DOSIS7M-34">
          <mxGeometry width="60" height="30" as="geometry">
            <mxRectangle width="60" height="30" as="alternateBounds" />
          </mxGeometry>
        </mxCell>
        <mxCell id="NHabuL97ViZi0DOSIS7M-36" value="&lt;div&gt;position&lt;/div&gt;" style="shape=partialRectangle;connectable=0;fillColor=none;top=0;left=0;bottom=0;right=0;align=left;spacingLeft=6;overflow=hidden;verticalAlign=middle;horizontal=1;spacingTop=0;html=1;fontSize=14;" vertex="1" parent="NHabuL97ViZi0DOSIS7M-34">
          <mxGeometry x="60" width="120" height="30" as="geometry">
            <mxRectangle width="120" height="30" as="alternateBounds" />
          </mxGeometry>
        </mxCell>
        <mxCell id="NHabuL97ViZi0DOSIS7M-37" value="&lt;div&gt;Session&lt;/div&gt;" style="shape=table;startSize=30;container=1;collapsible=1;childLayout=tableLayout;fixedRows=1;rowLines=0;fontStyle=1;align=center;resizeLast=1;verticalAlign=middle;horizontal=1;spacingTop=0;html=1;fontSize=14;" vertex="1" parent="1">
          <mxGeometry x="580" y="100" width="180" height="210.0000000000001" as="geometry">
            <mxRectangle x="280" y="290" width="70" height="30" as="alternateBounds" />
          </mxGeometry>
        </mxCell>
        <mxCell id="NHabuL97ViZi0DOSIS7M-38" value="" style="shape=tableRow;horizontal=1;startSize=0;swimlaneHead=0;swimlaneBody=0;fillColor=none;collapsible=0;dropTarget=0;points=[[0,0.5],[1,0.5]];portConstraint=eastwest;top=0;left=0;right=0;bottom=0;verticalAlign=middle;spacingTop=0;html=1;fontSize=14;" vertex="1" parent="NHabuL97ViZi0DOSIS7M-37">
          <mxGeometry y="30" width="180" height="30" as="geometry" />
        </mxCell>
        <mxCell id="NHabuL97ViZi0DOSIS7M-39" value="PK" style="shape=partialRectangle;connectable=0;fillColor=none;top=1;left=0;bottom=1;right=0;fontStyle=1;overflow=hidden;verticalAlign=middle;horizontal=1;spacingTop=0;html=1;fontSize=14;perimeterSpacing=0;" vertex="1" parent="NHabuL97ViZi0DOSIS7M-38">
          <mxGeometry width="60" height="30" as="geometry">
            <mxRectangle width="60" height="30" as="alternateBounds" />
          </mxGeometry>
        </mxCell>
        <mxCell id="NHabuL97ViZi0DOSIS7M-40" value="&lt;div&gt;id_session&lt;/div&gt;" style="shape=partialRectangle;connectable=0;fillColor=none;top=1;left=0;bottom=1;right=0;align=left;spacingLeft=6;fontStyle=5;overflow=hidden;verticalAlign=middle;horizontal=1;spacingTop=0;html=1;fontSize=14;perimeterSpacing=0;" vertex="1" parent="NHabuL97ViZi0DOSIS7M-38">
          <mxGeometry x="60" width="120" height="30" as="geometry">
            <mxRectangle width="120" height="30" as="alternateBounds" />
          </mxGeometry>
        </mxCell>
        <mxCell id="NHabuL97ViZi0DOSIS7M-41" value="" style="shape=tableRow;horizontal=1;startSize=0;swimlaneHead=0;swimlaneBody=0;fillColor=none;collapsible=0;dropTarget=0;points=[[0,0.5],[1,0.5]];portConstraint=eastwest;top=0;left=0;right=0;bottom=0;verticalAlign=middle;spacingTop=0;html=1;fontSize=14;" vertex="1" parent="NHabuL97ViZi0DOSIS7M-37">
          <mxGeometry y="60" width="180" height="30" as="geometry" />
        </mxCell>
        <mxCell id="NHabuL97ViZi0DOSIS7M-42" value="FK" style="shape=partialRectangle;connectable=0;fillColor=none;top=0;left=0;bottom=0;right=0;editable=1;overflow=hidden;verticalAlign=middle;horizontal=1;spacingTop=0;html=1;fontSize=14;" vertex="1" parent="NHabuL97ViZi0DOSIS7M-41">
          <mxGeometry width="60" height="30" as="geometry">
            <mxRectangle width="60" height="30" as="alternateBounds" />
          </mxGeometry>
        </mxCell>
        <mxCell id="NHabuL97ViZi0DOSIS7M-43" value="&lt;div&gt;id_candidate&lt;/div&gt;" style="shape=partialRectangle;connectable=0;fillColor=none;top=0;left=0;bottom=0;right=0;align=left;spacingLeft=6;overflow=hidden;verticalAlign=middle;horizontal=1;spacingTop=0;html=1;fontSize=14;" vertex="1" parent="NHabuL97ViZi0DOSIS7M-41">
          <mxGeometry x="60" width="120" height="30" as="geometry">
            <mxRectangle width="120" height="30" as="alternateBounds" />
          </mxGeometry>
        </mxCell>
        <mxCell id="NHabuL97ViZi0DOSIS7M-56" style="shape=tableRow;horizontal=1;startSize=0;swimlaneHead=0;swimlaneBody=0;fillColor=none;collapsible=0;dropTarget=0;points=[[0,0.5],[1,0.5]];portConstraint=eastwest;top=0;left=0;right=0;bottom=0;verticalAlign=middle;spacingTop=0;html=1;fontSize=14;" vertex="1" parent="NHabuL97ViZi0DOSIS7M-37">
          <mxGeometry y="90" width="180" height="30" as="geometry" />
        </mxCell>
        <mxCell id="NHabuL97ViZi0DOSIS7M-57" value="FK" style="shape=partialRectangle;connectable=0;fillColor=none;top=0;left=0;bottom=0;right=0;editable=1;overflow=hidden;verticalAlign=middle;horizontal=1;spacingTop=0;html=1;fontSize=14;" vertex="1" parent="NHabuL97ViZi0DOSIS7M-56">
          <mxGeometry width="60" height="30" as="geometry">
            <mxRectangle width="60" height="30" as="alternateBounds" />
          </mxGeometry>
        </mxCell>
        <mxCell id="NHabuL97ViZi0DOSIS7M-58" value="&lt;div&gt;id_hr_manager&lt;/div&gt;" style="shape=partialRectangle;connectable=0;fillColor=none;top=0;left=0;bottom=0;right=0;align=left;spacingLeft=6;overflow=hidden;verticalAlign=middle;horizontal=1;spacingTop=0;html=1;fontSize=14;" vertex="1" parent="NHabuL97ViZi0DOSIS7M-56">
          <mxGeometry x="60" width="120" height="30" as="geometry">
            <mxRectangle width="120" height="30" as="alternateBounds" />
          </mxGeometry>
        </mxCell>
        <mxCell id="NHabuL97ViZi0DOSIS7M-53" style="shape=tableRow;horizontal=1;startSize=0;swimlaneHead=0;swimlaneBody=0;fillColor=none;collapsible=0;dropTarget=0;points=[[0,0.5],[1,0.5]];portConstraint=eastwest;top=0;left=0;right=0;bottom=0;verticalAlign=middle;spacingTop=0;html=1;fontSize=14;" vertex="1" parent="NHabuL97ViZi0DOSIS7M-37">
          <mxGeometry y="120" width="180" height="30" as="geometry" />
        </mxCell>
        <mxCell id="NHabuL97ViZi0DOSIS7M-54" style="shape=partialRectangle;connectable=0;fillColor=none;top=0;left=0;bottom=0;right=0;editable=1;overflow=hidden;verticalAlign=middle;horizontal=1;spacingTop=0;html=1;fontSize=14;" vertex="1" parent="NHabuL97ViZi0DOSIS7M-53">
          <mxGeometry width="60" height="30" as="geometry">
            <mxRectangle width="60" height="30" as="alternateBounds" />
          </mxGeometry>
        </mxCell>
        <mxCell id="NHabuL97ViZi0DOSIS7M-55" value="&lt;div&gt;date_time&lt;/div&gt;" style="shape=partialRectangle;connectable=0;fillColor=none;top=0;left=0;bottom=0;right=0;align=left;spacingLeft=6;overflow=hidden;verticalAlign=middle;horizontal=1;spacingTop=0;html=1;fontSize=14;" vertex="1" parent="NHabuL97ViZi0DOSIS7M-53">
          <mxGeometry x="60" width="120" height="30" as="geometry">
            <mxRectangle width="120" height="30" as="alternateBounds" />
          </mxGeometry>
        </mxCell>
        <mxCell id="NHabuL97ViZi0DOSIS7M-50" style="shape=tableRow;horizontal=1;startSize=0;swimlaneHead=0;swimlaneBody=0;fillColor=none;collapsible=0;dropTarget=0;points=[[0,0.5],[1,0.5]];portConstraint=eastwest;top=0;left=0;right=0;bottom=0;verticalAlign=middle;spacingTop=0;html=1;fontSize=14;" vertex="1" parent="NHabuL97ViZi0DOSIS7M-37">
          <mxGeometry y="150" width="180" height="30" as="geometry" />
        </mxCell>
        <mxCell id="NHabuL97ViZi0DOSIS7M-51" style="shape=partialRectangle;connectable=0;fillColor=none;top=0;left=0;bottom=0;right=0;editable=1;overflow=hidden;verticalAlign=middle;horizontal=1;spacingTop=0;html=1;fontSize=14;" vertex="1" parent="NHabuL97ViZi0DOSIS7M-50">
          <mxGeometry width="60" height="30" as="geometry">
            <mxRectangle width="60" height="30" as="alternateBounds" />
          </mxGeometry>
        </mxCell>
        <mxCell id="NHabuL97ViZi0DOSIS7M-52" value="&lt;div&gt;video&lt;/div&gt;" style="shape=partialRectangle;connectable=0;fillColor=none;top=0;left=0;bottom=0;right=0;align=left;spacingLeft=6;overflow=hidden;verticalAlign=middle;horizontal=1;spacingTop=0;html=1;fontSize=14;" vertex="1" parent="NHabuL97ViZi0DOSIS7M-50">
          <mxGeometry x="60" width="120" height="30" as="geometry">
            <mxRectangle width="120" height="30" as="alternateBounds" />
          </mxGeometry>
        </mxCell>
        <mxCell id="NHabuL97ViZi0DOSIS7M-47" style="shape=tableRow;horizontal=1;startSize=0;swimlaneHead=0;swimlaneBody=0;fillColor=none;collapsible=0;dropTarget=0;points=[[0,0.5],[1,0.5]];portConstraint=eastwest;top=0;left=0;right=0;bottom=0;verticalAlign=middle;spacingTop=0;html=1;fontSize=14;" vertex="1" parent="NHabuL97ViZi0DOSIS7M-37">
          <mxGeometry y="180" width="180" height="30" as="geometry" />
        </mxCell>
        <mxCell id="NHabuL97ViZi0DOSIS7M-48" style="shape=partialRectangle;connectable=0;fillColor=none;top=0;left=0;bottom=0;right=0;editable=1;overflow=hidden;verticalAlign=middle;horizontal=1;spacingTop=0;html=1;fontSize=14;" vertex="1" parent="NHabuL97ViZi0DOSIS7M-47">
          <mxGeometry width="60" height="30" as="geometry">
            <mxRectangle width="60" height="30" as="alternateBounds" />
          </mxGeometry>
        </mxCell>
        <mxCell id="NHabuL97ViZi0DOSIS7M-49" value="&lt;div&gt;audio&lt;/div&gt;" style="shape=partialRectangle;connectable=0;fillColor=none;top=0;left=0;bottom=0;right=0;align=left;spacingLeft=6;overflow=hidden;verticalAlign=middle;horizontal=1;spacingTop=0;html=1;fontSize=14;" vertex="1" parent="NHabuL97ViZi0DOSIS7M-47">
          <mxGeometry x="60" width="120" height="30" as="geometry">
            <mxRectangle width="120" height="30" as="alternateBounds" />
          </mxGeometry>
        </mxCell>
        <mxCell id="NHabuL97ViZi0DOSIS7M-60" value="&lt;div&gt;Emotions&lt;/div&gt;" style="shape=table;startSize=30;container=1;collapsible=1;childLayout=tableLayout;fixedRows=1;rowLines=0;fontStyle=1;align=center;resizeLast=1;verticalAlign=middle;horizontal=1;spacingTop=0;html=1;fontSize=14;" vertex="1" parent="1">
          <mxGeometry x="270" y="-50" width="180" height="150" as="geometry">
            <mxRectangle x="280" y="290" width="70" height="30" as="alternateBounds" />
          </mxGeometry>
        </mxCell>
        <mxCell id="NHabuL97ViZi0DOSIS7M-61" value="" style="shape=tableRow;horizontal=1;startSize=0;swimlaneHead=0;swimlaneBody=0;fillColor=none;collapsible=0;dropTarget=0;points=[[0,0.5],[1,0.5]];portConstraint=eastwest;top=0;left=0;right=0;bottom=0;verticalAlign=middle;spacingTop=0;html=1;fontSize=14;" vertex="1" parent="NHabuL97ViZi0DOSIS7M-60">
          <mxGeometry y="30" width="180" height="30" as="geometry" />
        </mxCell>
        <mxCell id="NHabuL97ViZi0DOSIS7M-62" value="PK" style="shape=partialRectangle;connectable=0;fillColor=none;top=1;left=0;bottom=1;right=0;fontStyle=1;overflow=hidden;verticalAlign=middle;horizontal=1;spacingTop=0;html=1;fontSize=14;" vertex="1" parent="NHabuL97ViZi0DOSIS7M-61">
          <mxGeometry width="60" height="30" as="geometry">
            <mxRectangle width="60" height="30" as="alternateBounds" />
          </mxGeometry>
        </mxCell>
        <mxCell id="NHabuL97ViZi0DOSIS7M-63" value="&lt;div&gt;id_emotion&lt;/div&gt;" style="shape=partialRectangle;connectable=0;fillColor=none;top=1;left=0;bottom=1;right=0;align=left;spacingLeft=6;fontStyle=5;overflow=hidden;verticalAlign=middle;horizontal=1;spacingTop=0;html=1;fontSize=14;" vertex="1" parent="NHabuL97ViZi0DOSIS7M-61">
          <mxGeometry x="60" width="120" height="30" as="geometry">
            <mxRectangle width="120" height="30" as="alternateBounds" />
          </mxGeometry>
        </mxCell>
        <mxCell id="NHabuL97ViZi0DOSIS7M-64" value="" style="shape=tableRow;horizontal=1;startSize=0;swimlaneHead=0;swimlaneBody=0;fillColor=none;collapsible=0;dropTarget=0;points=[[0,0.5],[1,0.5]];portConstraint=eastwest;top=0;left=0;right=0;bottom=0;verticalAlign=middle;spacingTop=0;html=1;fontSize=14;" vertex="1" parent="NHabuL97ViZi0DOSIS7M-60">
          <mxGeometry y="60" width="180" height="30" as="geometry" />
        </mxCell>
        <mxCell id="NHabuL97ViZi0DOSIS7M-65" value="FK" style="shape=partialRectangle;connectable=0;fillColor=none;top=0;left=0;bottom=0;right=0;editable=1;overflow=hidden;verticalAlign=middle;horizontal=1;spacingTop=0;html=1;fontSize=14;" vertex="1" parent="NHabuL97ViZi0DOSIS7M-64">
          <mxGeometry width="60" height="30" as="geometry">
            <mxRectangle width="60" height="30" as="alternateBounds" />
          </mxGeometry>
        </mxCell>
        <mxCell id="NHabuL97ViZi0DOSIS7M-66" value="&lt;div&gt;id_session&lt;/div&gt;" style="shape=partialRectangle;connectable=0;fillColor=none;top=0;left=0;bottom=0;right=0;align=left;spacingLeft=6;overflow=hidden;verticalAlign=middle;horizontal=1;spacingTop=0;html=1;fontSize=14;" vertex="1" parent="NHabuL97ViZi0DOSIS7M-64">
          <mxGeometry x="60" width="120" height="30" as="geometry">
            <mxRectangle width="120" height="30" as="alternateBounds" />
          </mxGeometry>
        </mxCell>
        <mxCell id="NHabuL97ViZi0DOSIS7M-67" style="shape=tableRow;horizontal=1;startSize=0;swimlaneHead=0;swimlaneBody=0;fillColor=none;collapsible=0;dropTarget=0;points=[[0,0.5],[1,0.5]];portConstraint=eastwest;top=0;left=0;right=0;bottom=0;verticalAlign=middle;spacingTop=0;html=1;fontSize=14;" vertex="1" parent="NHabuL97ViZi0DOSIS7M-60">
          <mxGeometry y="90" width="180" height="30" as="geometry" />
        </mxCell>
        <mxCell id="NHabuL97ViZi0DOSIS7M-68" style="shape=partialRectangle;connectable=0;fillColor=none;top=0;left=0;bottom=0;right=0;editable=1;overflow=hidden;verticalAlign=middle;horizontal=1;spacingTop=0;html=1;fontSize=14;" vertex="1" parent="NHabuL97ViZi0DOSIS7M-67">
          <mxGeometry width="60" height="30" as="geometry">
            <mxRectangle width="60" height="30" as="alternateBounds" />
          </mxGeometry>
        </mxCell>
        <mxCell id="NHabuL97ViZi0DOSIS7M-69" value="&lt;div&gt;emotion&lt;/div&gt;" style="shape=partialRectangle;connectable=0;fillColor=none;top=0;left=0;bottom=0;right=0;align=left;spacingLeft=6;overflow=hidden;verticalAlign=middle;horizontal=1;spacingTop=0;html=1;fontSize=14;" vertex="1" parent="NHabuL97ViZi0DOSIS7M-67">
          <mxGeometry x="60" width="120" height="30" as="geometry">
            <mxRectangle width="120" height="30" as="alternateBounds" />
          </mxGeometry>
        </mxCell>
        <mxCell id="NHabuL97ViZi0DOSIS7M-70" style="shape=tableRow;horizontal=1;startSize=0;swimlaneHead=0;swimlaneBody=0;fillColor=none;collapsible=0;dropTarget=0;points=[[0,0.5],[1,0.5]];portConstraint=eastwest;top=0;left=0;right=0;bottom=0;verticalAlign=middle;spacingTop=0;html=1;fontSize=14;" vertex="1" parent="NHabuL97ViZi0DOSIS7M-60">
          <mxGeometry y="120" width="180" height="30" as="geometry" />
        </mxCell>
        <mxCell id="NHabuL97ViZi0DOSIS7M-71" style="shape=partialRectangle;connectable=0;fillColor=none;top=0;left=0;bottom=0;right=0;editable=1;overflow=hidden;verticalAlign=middle;horizontal=1;spacingTop=0;html=1;fontSize=14;" vertex="1" parent="NHabuL97ViZi0DOSIS7M-70">
          <mxGeometry width="60" height="30" as="geometry">
            <mxRectangle width="60" height="30" as="alternateBounds" />
          </mxGeometry>
        </mxCell>
        <mxCell id="NHabuL97ViZi0DOSIS7M-72" value="&lt;div&gt;probability&lt;/div&gt;" style="shape=partialRectangle;connectable=0;fillColor=none;top=0;left=0;bottom=0;right=0;align=left;spacingLeft=6;overflow=hidden;verticalAlign=middle;horizontal=1;spacingTop=0;html=1;fontSize=14;" vertex="1" parent="NHabuL97ViZi0DOSIS7M-70">
          <mxGeometry x="60" width="120" height="30" as="geometry">
            <mxRectangle width="120" height="30" as="alternateBounds" />
          </mxGeometry>
        </mxCell>
        <mxCell id="NHabuL97ViZi0DOSIS7M-85" value="&lt;div&gt;Features&lt;/div&gt;" style="shape=table;startSize=30;container=1;collapsible=1;childLayout=tableLayout;fixedRows=1;rowLines=0;fontStyle=1;align=center;resizeLast=1;verticalAlign=middle;horizontal=1;spacingTop=0;html=1;fontSize=14;" vertex="1" parent="1">
          <mxGeometry x="900" width="180" height="150" as="geometry">
            <mxRectangle x="280" y="290" width="70" height="30" as="alternateBounds" />
          </mxGeometry>
        </mxCell>
        <mxCell id="NHabuL97ViZi0DOSIS7M-86" value="" style="shape=tableRow;horizontal=1;startSize=0;swimlaneHead=0;swimlaneBody=0;fillColor=none;collapsible=0;dropTarget=0;points=[[0,0.5],[1,0.5]];portConstraint=eastwest;top=0;left=0;right=0;bottom=0;verticalAlign=middle;spacingTop=0;html=1;fontSize=14;" vertex="1" parent="NHabuL97ViZi0DOSIS7M-85">
          <mxGeometry y="30" width="180" height="30" as="geometry" />
        </mxCell>
        <mxCell id="NHabuL97ViZi0DOSIS7M-87" value="PK" style="shape=partialRectangle;connectable=0;fillColor=none;top=1;left=0;bottom=1;right=0;fontStyle=1;overflow=hidden;verticalAlign=middle;horizontal=1;spacingTop=0;html=1;fontSize=14;" vertex="1" parent="NHabuL97ViZi0DOSIS7M-86">
          <mxGeometry width="60" height="30" as="geometry">
            <mxRectangle width="60" height="30" as="alternateBounds" />
          </mxGeometry>
        </mxCell>
        <mxCell id="NHabuL97ViZi0DOSIS7M-88" value="&lt;div&gt;id_feature&lt;/div&gt;" style="shape=partialRectangle;connectable=0;fillColor=none;top=1;left=0;bottom=1;right=0;align=left;spacingLeft=6;fontStyle=5;overflow=hidden;verticalAlign=middle;horizontal=1;spacingTop=0;html=1;fontSize=14;" vertex="1" parent="NHabuL97ViZi0DOSIS7M-86">
          <mxGeometry x="60" width="120" height="30" as="geometry">
            <mxRectangle width="120" height="30" as="alternateBounds" />
          </mxGeometry>
        </mxCell>
        <mxCell id="NHabuL97ViZi0DOSIS7M-89" value="" style="shape=tableRow;horizontal=1;startSize=0;swimlaneHead=0;swimlaneBody=0;fillColor=none;collapsible=0;dropTarget=0;points=[[0,0.5],[1,0.5]];portConstraint=eastwest;top=0;left=0;right=0;bottom=0;verticalAlign=middle;spacingTop=0;html=1;fontSize=14;" vertex="1" parent="NHabuL97ViZi0DOSIS7M-85">
          <mxGeometry y="60" width="180" height="30" as="geometry" />
        </mxCell>
        <mxCell id="NHabuL97ViZi0DOSIS7M-90" value="FK" style="shape=partialRectangle;connectable=0;fillColor=none;top=0;left=0;bottom=0;right=0;editable=1;overflow=hidden;verticalAlign=middle;horizontal=1;spacingTop=0;html=1;fontSize=14;" vertex="1" parent="NHabuL97ViZi0DOSIS7M-89">
          <mxGeometry width="60" height="30" as="geometry">
            <mxRectangle width="60" height="30" as="alternateBounds" />
          </mxGeometry>
        </mxCell>
        <mxCell id="NHabuL97ViZi0DOSIS7M-91" value="&lt;div&gt;id_session&lt;/div&gt;" style="shape=partialRectangle;connectable=0;fillColor=none;top=0;left=0;bottom=0;right=0;align=left;spacingLeft=6;overflow=hidden;verticalAlign=middle;horizontal=1;spacingTop=0;html=1;fontSize=14;" vertex="1" parent="NHabuL97ViZi0DOSIS7M-89">
          <mxGeometry x="60" width="120" height="30" as="geometry">
            <mxRectangle width="120" height="30" as="alternateBounds" />
          </mxGeometry>
        </mxCell>
        <mxCell id="NHabuL97ViZi0DOSIS7M-92" style="shape=tableRow;horizontal=1;startSize=0;swimlaneHead=0;swimlaneBody=0;fillColor=none;collapsible=0;dropTarget=0;points=[[0,0.5],[1,0.5]];portConstraint=eastwest;top=0;left=0;right=0;bottom=0;verticalAlign=middle;spacingTop=0;html=1;fontSize=14;" vertex="1" parent="NHabuL97ViZi0DOSIS7M-85">
          <mxGeometry y="90" width="180" height="30" as="geometry" />
        </mxCell>
        <mxCell id="NHabuL97ViZi0DOSIS7M-93" style="shape=partialRectangle;connectable=0;fillColor=none;top=0;left=0;bottom=0;right=0;editable=1;overflow=hidden;verticalAlign=middle;horizontal=1;spacingTop=0;html=1;fontSize=14;" vertex="1" parent="NHabuL97ViZi0DOSIS7M-92">
          <mxGeometry width="60" height="30" as="geometry">
            <mxRectangle width="60" height="30" as="alternateBounds" />
          </mxGeometry>
        </mxCell>
        <mxCell id="NHabuL97ViZi0DOSIS7M-94" value="&lt;div&gt;facial_features&lt;/div&gt;" style="shape=partialRectangle;connectable=0;fillColor=none;top=0;left=0;bottom=0;right=0;align=left;spacingLeft=6;overflow=hidden;verticalAlign=middle;horizontal=1;spacingTop=0;html=1;fontSize=14;" vertex="1" parent="NHabuL97ViZi0DOSIS7M-92">
          <mxGeometry x="60" width="120" height="30" as="geometry">
            <mxRectangle width="120" height="30" as="alternateBounds" />
          </mxGeometry>
        </mxCell>
        <mxCell id="NHabuL97ViZi0DOSIS7M-95" style="shape=tableRow;horizontal=1;startSize=0;swimlaneHead=0;swimlaneBody=0;fillColor=none;collapsible=0;dropTarget=0;points=[[0,0.5],[1,0.5]];portConstraint=eastwest;top=0;left=0;right=0;bottom=0;verticalAlign=middle;spacingTop=0;html=1;fontSize=14;" vertex="1" parent="NHabuL97ViZi0DOSIS7M-85">
          <mxGeometry y="120" width="180" height="30" as="geometry" />
        </mxCell>
        <mxCell id="NHabuL97ViZi0DOSIS7M-96" style="shape=partialRectangle;connectable=0;fillColor=none;top=0;left=0;bottom=0;right=0;editable=1;overflow=hidden;verticalAlign=middle;horizontal=1;spacingTop=0;html=1;fontSize=14;" vertex="1" parent="NHabuL97ViZi0DOSIS7M-95">
          <mxGeometry width="60" height="30" as="geometry">
            <mxRectangle width="60" height="30" as="alternateBounds" />
          </mxGeometry>
        </mxCell>
        <mxCell id="NHabuL97ViZi0DOSIS7M-97" value="&lt;div&gt;mfcc&lt;/div&gt;" style="shape=partialRectangle;connectable=0;fillColor=none;top=0;left=0;bottom=0;right=0;align=left;spacingLeft=6;overflow=hidden;verticalAlign=middle;horizontal=1;spacingTop=0;html=1;fontSize=14;" vertex="1" parent="NHabuL97ViZi0DOSIS7M-95">
          <mxGeometry x="60" width="120" height="30" as="geometry">
            <mxRectangle width="120" height="30" as="alternateBounds" />
          </mxGeometry>
        </mxCell>
        <mxCell id="NHabuL97ViZi0DOSIS7M-99" value="&lt;div&gt;Report&lt;/div&gt;" style="shape=table;startSize=30;container=1;collapsible=1;childLayout=tableLayout;fixedRows=1;rowLines=0;fontStyle=1;align=center;resizeLast=1;verticalAlign=middle;horizontal=1;spacingTop=0;html=1;fontSize=14;" vertex="1" parent="1">
          <mxGeometry x="10" y="100" width="180" height="180.0000000000001" as="geometry">
            <mxRectangle x="280" y="290" width="70" height="30" as="alternateBounds" />
          </mxGeometry>
        </mxCell>
        <mxCell id="NHabuL97ViZi0DOSIS7M-100" value="" style="shape=tableRow;horizontal=1;startSize=0;swimlaneHead=0;swimlaneBody=0;fillColor=none;collapsible=0;dropTarget=0;points=[[0,0.5],[1,0.5]];portConstraint=eastwest;top=0;left=0;right=0;bottom=0;verticalAlign=middle;spacingTop=0;html=1;fontSize=14;" vertex="1" parent="NHabuL97ViZi0DOSIS7M-99">
          <mxGeometry y="30" width="180" height="30" as="geometry" />
        </mxCell>
        <mxCell id="NHabuL97ViZi0DOSIS7M-101" value="PK" style="shape=partialRectangle;connectable=0;fillColor=none;top=1;left=0;bottom=1;right=0;fontStyle=1;overflow=hidden;verticalAlign=middle;horizontal=1;spacingTop=0;html=1;fontSize=14;" vertex="1" parent="NHabuL97ViZi0DOSIS7M-100">
          <mxGeometry width="60" height="30" as="geometry">
            <mxRectangle width="60" height="30" as="alternateBounds" />
          </mxGeometry>
        </mxCell>
        <mxCell id="NHabuL97ViZi0DOSIS7M-102" value="&lt;div&gt;&lt;span class=&quot;text-sm px-1 rounded-sm !font-mono bg-sunset/10 text-rust dark:bg-dawn/10 dark:text-dawn&quot;&gt;id_report&lt;/span&gt;&lt;/div&gt;" style="shape=partialRectangle;connectable=0;fillColor=none;top=1;left=0;bottom=1;right=0;align=left;spacingLeft=6;fontStyle=5;overflow=hidden;verticalAlign=middle;horizontal=1;spacingTop=0;html=1;fontSize=14;" vertex="1" parent="NHabuL97ViZi0DOSIS7M-100">
          <mxGeometry x="60" width="120" height="30" as="geometry">
            <mxRectangle width="120" height="30" as="alternateBounds" />
          </mxGeometry>
        </mxCell>
        <mxCell id="NHabuL97ViZi0DOSIS7M-103" value="" style="shape=tableRow;horizontal=1;startSize=0;swimlaneHead=0;swimlaneBody=0;fillColor=none;collapsible=0;dropTarget=0;points=[[0,0.5],[1,0.5]];portConstraint=eastwest;top=0;left=0;right=0;bottom=0;verticalAlign=middle;spacingTop=0;html=1;fontSize=14;" vertex="1" parent="NHabuL97ViZi0DOSIS7M-99">
          <mxGeometry y="60" width="180" height="30" as="geometry" />
        </mxCell>
        <mxCell id="NHabuL97ViZi0DOSIS7M-104" value="FK" style="shape=partialRectangle;connectable=0;fillColor=none;top=0;left=0;bottom=0;right=0;editable=1;overflow=hidden;verticalAlign=middle;horizontal=1;spacingTop=0;html=1;fontSize=14;" vertex="1" parent="NHabuL97ViZi0DOSIS7M-103">
          <mxGeometry width="60" height="30" as="geometry">
            <mxRectangle width="60" height="30" as="alternateBounds" />
          </mxGeometry>
        </mxCell>
        <mxCell id="NHabuL97ViZi0DOSIS7M-105" value="&lt;div&gt;id_session&lt;/div&gt;" style="shape=partialRectangle;connectable=0;fillColor=none;top=0;left=0;bottom=0;right=0;align=left;spacingLeft=6;overflow=hidden;verticalAlign=middle;horizontal=1;spacingTop=0;html=1;fontSize=14;" vertex="1" parent="NHabuL97ViZi0DOSIS7M-103">
          <mxGeometry x="60" width="120" height="30" as="geometry">
            <mxRectangle width="120" height="30" as="alternateBounds" />
          </mxGeometry>
        </mxCell>
        <mxCell id="NHabuL97ViZi0DOSIS7M-106" style="shape=tableRow;horizontal=1;startSize=0;swimlaneHead=0;swimlaneBody=0;fillColor=none;collapsible=0;dropTarget=0;points=[[0,0.5],[1,0.5]];portConstraint=eastwest;top=0;left=0;right=0;bottom=0;verticalAlign=middle;spacingTop=0;html=1;fontSize=14;" vertex="1" parent="NHabuL97ViZi0DOSIS7M-99">
          <mxGeometry y="90" width="180" height="30" as="geometry" />
        </mxCell>
        <mxCell id="NHabuL97ViZi0DOSIS7M-107" value="FK" style="shape=partialRectangle;connectable=0;fillColor=none;top=0;left=0;bottom=0;right=0;editable=1;overflow=hidden;verticalAlign=middle;horizontal=1;spacingTop=0;html=1;fontSize=14;" vertex="1" parent="NHabuL97ViZi0DOSIS7M-106">
          <mxGeometry width="60" height="30" as="geometry">
            <mxRectangle width="60" height="30" as="alternateBounds" />
          </mxGeometry>
        </mxCell>
        <mxCell id="NHabuL97ViZi0DOSIS7M-108" value="&lt;div&gt;id_hr_manager&lt;/div&gt;" style="shape=partialRectangle;connectable=0;fillColor=none;top=0;left=0;bottom=0;right=0;align=left;spacingLeft=6;overflow=hidden;verticalAlign=middle;horizontal=1;spacingTop=0;html=1;fontSize=14;" vertex="1" parent="NHabuL97ViZi0DOSIS7M-106">
          <mxGeometry x="60" width="120" height="30" as="geometry">
            <mxRectangle width="120" height="30" as="alternateBounds" />
          </mxGeometry>
        </mxCell>
        <mxCell id="NHabuL97ViZi0DOSIS7M-109" style="shape=tableRow;horizontal=1;startSize=0;swimlaneHead=0;swimlaneBody=0;fillColor=none;collapsible=0;dropTarget=0;points=[[0,0.5],[1,0.5]];portConstraint=eastwest;top=0;left=0;right=0;bottom=0;verticalAlign=middle;spacingTop=0;html=1;fontSize=14;" vertex="1" parent="NHabuL97ViZi0DOSIS7M-99">
          <mxGeometry y="120" width="180" height="30" as="geometry" />
        </mxCell>
        <mxCell id="NHabuL97ViZi0DOSIS7M-110" style="shape=partialRectangle;connectable=0;fillColor=none;top=0;left=0;bottom=0;right=0;editable=1;overflow=hidden;verticalAlign=middle;horizontal=1;spacingTop=0;html=1;fontSize=14;" vertex="1" parent="NHabuL97ViZi0DOSIS7M-109">
          <mxGeometry width="60" height="30" as="geometry">
            <mxRectangle width="60" height="30" as="alternateBounds" />
          </mxGeometry>
        </mxCell>
        <mxCell id="NHabuL97ViZi0DOSIS7M-111" value="&lt;div&gt;metrics&lt;/div&gt;" style="shape=partialRectangle;connectable=0;fillColor=none;top=0;left=0;bottom=0;right=0;align=left;spacingLeft=6;overflow=hidden;verticalAlign=middle;horizontal=1;spacingTop=0;html=1;fontSize=14;" vertex="1" parent="NHabuL97ViZi0DOSIS7M-109">
          <mxGeometry x="60" width="120" height="30" as="geometry">
            <mxRectangle width="120" height="30" as="alternateBounds" />
          </mxGeometry>
        </mxCell>
        <mxCell id="NHabuL97ViZi0DOSIS7M-112" style="shape=tableRow;horizontal=1;startSize=0;swimlaneHead=0;swimlaneBody=0;fillColor=none;collapsible=0;dropTarget=0;points=[[0,0.5],[1,0.5]];portConstraint=eastwest;top=0;left=0;right=0;bottom=0;verticalAlign=middle;spacingTop=0;html=1;fontSize=14;" vertex="1" parent="NHabuL97ViZi0DOSIS7M-99">
          <mxGeometry y="150" width="180" height="30" as="geometry" />
        </mxCell>
        <mxCell id="NHabuL97ViZi0DOSIS7M-113" style="shape=partialRectangle;connectable=0;fillColor=none;top=0;left=0;bottom=0;right=0;editable=1;overflow=hidden;verticalAlign=middle;horizontal=1;spacingTop=0;html=1;fontSize=14;" vertex="1" parent="NHabuL97ViZi0DOSIS7M-112">
          <mxGeometry width="60" height="30" as="geometry">
            <mxRectangle width="60" height="30" as="alternateBounds" />
          </mxGeometry>
        </mxCell>
        <mxCell id="NHabuL97ViZi0DOSIS7M-114" value="&lt;div&gt;summary&lt;/div&gt;" style="shape=partialRectangle;connectable=0;fillColor=none;top=0;left=0;bottom=0;right=0;align=left;spacingLeft=6;overflow=hidden;verticalAlign=middle;horizontal=1;spacingTop=0;html=1;fontSize=14;" vertex="1" parent="NHabuL97ViZi0DOSIS7M-112">
          <mxGeometry x="60" width="120" height="30" as="geometry">
            <mxRectangle width="120" height="30" as="alternateBounds" />
          </mxGeometry>
        </mxCell>
        <mxCell id="NHabuL97ViZi0DOSIS7M-119" style="edgeStyle=entityRelationEdgeStyle;rounded=0;orthogonalLoop=1;jettySize=auto;html=1;exitX=1;exitY=0.5;exitDx=0;exitDy=0;entryX=0;entryY=0.5;entryDx=0;entryDy=0;startArrow=ERone;startFill=0;endArrow=ERmany;endFill=0;fontSize=14;" edge="1" parent="1" source="NHabuL97ViZi0DOSIS7M-6" target="NHabuL97ViZi0DOSIS7M-56">
          <mxGeometry relative="1" as="geometry" />
        </mxCell>
        <mxCell id="NHabuL97ViZi0DOSIS7M-121" style="edgeStyle=entityRelationEdgeStyle;rounded=0;orthogonalLoop=1;jettySize=auto;html=1;exitX=0;exitY=0.5;exitDx=0;exitDy=0;entryX=1;entryY=0.5;entryDx=0;entryDy=0;startArrow=ERone;startFill=0;endArrow=ERmany;endFill=0;fontSize=14;" edge="1" parent="1" source="NHabuL97ViZi0DOSIS7M-28" target="NHabuL97ViZi0DOSIS7M-41">
          <mxGeometry relative="1" as="geometry" />
        </mxCell>
        <mxCell id="NHabuL97ViZi0DOSIS7M-122" style="edgeStyle=entityRelationEdgeStyle;rounded=0;orthogonalLoop=1;jettySize=auto;html=1;exitX=0;exitY=0.5;exitDx=0;exitDy=0;entryX=1;entryY=0.5;entryDx=0;entryDy=0;startArrow=ERone;startFill=0;endArrow=ERmany;endFill=0;fontSize=14;" edge="1" parent="1" source="NHabuL97ViZi0DOSIS7M-38" target="NHabuL97ViZi0DOSIS7M-64">
          <mxGeometry relative="1" as="geometry" />
        </mxCell>
        <mxCell id="NHabuL97ViZi0DOSIS7M-123" style="edgeStyle=entityRelationEdgeStyle;rounded=0;orthogonalLoop=1;jettySize=auto;html=1;exitX=0;exitY=0.5;exitDx=0;exitDy=0;entryX=1;entryY=0.5;entryDx=0;entryDy=0;startArrow=ERone;startFill=0;endArrow=ERone;endFill=0;fontSize=14;" edge="1" parent="1" source="NHabuL97ViZi0DOSIS7M-38" target="NHabuL97ViZi0DOSIS7M-103">
          <mxGeometry relative="1" as="geometry" />
        </mxCell>
        <mxCell id="NHabuL97ViZi0DOSIS7M-128" style="edgeStyle=entityRelationEdgeStyle;rounded=0;orthogonalLoop=1;jettySize=auto;html=1;exitX=0;exitY=0.5;exitDx=0;exitDy=0;entryX=1;entryY=0.5;entryDx=0;entryDy=0;startArrow=ERone;startFill=0;endArrow=ERmany;endFill=0;fontSize=14;" edge="1" parent="1" source="NHabuL97ViZi0DOSIS7M-6" target="NHabuL97ViZi0DOSIS7M-106">
          <mxGeometry relative="1" as="geometry" />
        </mxCell>
        <mxCell id="NHabuL97ViZi0DOSIS7M-130" style="edgeStyle=entityRelationEdgeStyle;rounded=0;orthogonalLoop=1;jettySize=auto;html=1;exitX=1;exitY=0.5;exitDx=0;exitDy=0;entryX=0;entryY=0.5;entryDx=0;entryDy=0;startArrow=ERone;startFill=0;endArrow=ERmany;endFill=0;fontSize=14;" edge="1" parent="1" source="NHabuL97ViZi0DOSIS7M-38" target="NHabuL97ViZi0DOSIS7M-89">
          <mxGeometry relative="1" as="geometry" />
        </mxCell>
      </root>
    </mxGraphModel>
  </diagram>
</mxfile>
